<svg xmlns="http://www.w3.org/2000/svg" width="16" height="16" viewBox="0 0 16 16" fill="currentColor" fill-rule="evenodd" role="img" focusable="false">
  <title>Arrow right — filled</title>
  <path d="M5.6988 12.0838L5.5471 12.2762L5.4359 12.4946L5.3694 12.7304L5.3502 12.9747L5.3791 13.2181L5.4548 13.4511L5.5746 13.6649L5.7338 13.8512L5.9262 14.0029L6.1446 14.1141L6.3804 14.1806L6.6247 14.1998L6.8681 14.1709L7.1011 14.0952L7.3149 13.9754L14.4149 9.0254L14.5978 8.8698L14.7475 8.6821L14.8586 8.4692L14.9269 8.239L14.95 8L14.9269 7.761L14.8586 7.5308L14.7475 7.3179L14.5978 7.1302L14.4149 6.9746L7.3149 2.0246L7.1011 1.9048L6.8681 1.8291L6.6247 1.8002L6.3804 1.8194L6.1446 1.8859L5.9262 1.9971L5.7338 2.1488L5.5746 2.3351L5.4548 2.5489L5.3791 2.7819L5.3502 3.0253L5.3694 3.2696L5.4359 3.5054L5.5471 3.7238L5.6988 3.9162L5.8851 4.0754L9.7214 6.75L2 6.75L1.7561 6.774L1.5216 6.8452L1.3055 6.9607L1.1161 7.1161L0.9607 7.3055L0.8452 7.5216L0.774 7.7561L0.75 8L0.774 8.2439L0.8452 8.4784L0.9607 8.6945L1.1161 8.8839L1.3055 9.0393L1.5216 9.1548L1.7561 9.226L2 9.25L9.7214 9.25L5.8851 11.9246Z"/>
</svg>
